<svg width="52" height="52" viewBox="0 0 52 52" fill="none" xmlns="http://www.w3.org/2000/svg">
<path d="M40.7333 37.7002C40.7333 34.5889 38.2113 32.0669 35.1 32.0669C31.9887 32.0669 29.4667 34.5889 29.4667 37.7002C29.4667 39.2966 30.1331 40.7344 31.2 41.7597V48.5336L35.1 45.9336L39 48.5336V41.7597C40.0669 40.7344 40.7333 39.2966 40.7333 37.7002Z" fill="url(#paint0_linear_6_327)"/>
<path d="M46.8 6.06689H5.20001C4.24321 6.06689 3.46667 6.84256 3.46667 7.80023V42.4669C3.46667 43.4237 4.24321 44.2002 5.20001 44.2002H27.7333V43.0415C26.6067 41.4997 26 39.6502 26 37.7002C26 32.6822 30.082 28.6002 35.1 28.6002C40.118 28.6002 44.2 32.6822 44.2 37.7002C44.2 39.6511 43.5933 41.5006 42.4667 43.0424V44.2002H46.8C47.7568 44.2002 48.5333 43.4237 48.5333 42.4669V7.80023C48.5333 6.84256 47.7568 6.06689 46.8 6.06689ZM27.7333 21.6669H13V18.2002H27.7333V21.6669ZM39 14.7336H13V11.2669H39V14.7336Z" fill="url(#paint1_linear_6_327)"/>
<defs>
<linearGradient id="paint0_linear_6_327" x1="26" y1="6.06689" x2="26" y2="48.5336" gradientUnits="userSpaceOnUse">
<stop stop-color="#FFD15C"/>
<stop offset="1" stop-color="#FFD15C"/>
</linearGradient>
<linearGradient id="paint1_linear_6_327" x1="26" y1="6.06689" x2="26" y2="48.5336" gradientUnits="userSpaceOnUse">
<stop stop-color="#034D82"/>
<stop offset="1" stop-color="#034D82"/>
</linearGradient>
</defs>
</svg>
