<svg width="52" height="52" viewBox="0 0 52 52" fill="none" xmlns="http://www.w3.org/2000/svg">
<path d="M44.2004 11.5498C43.1555 11.5498 7.97034 11.5498 6.80044 11.5498C5.08114 11.5498 3.67014 12.8638 3.51514 14.5426C3.48664 14.8279 3.50684 13.5056 3.50044 37.5498H47.5004V14.8498C47.5004 13.0411 46.0357 11.5498 44.2004 11.5498Z" fill="#034D82"/>
<path d="M26.0005 3.5498C26.8285 3.5498 27.5005 4.2218 27.5005 5.0498C27.5005 5.8778 26.8285 6.5498 26.0005 6.5498C25.1726 6.5498 24.5005 5.8778 24.5005 5.0498C24.5005 4.2218 25.1726 3.5498 26.0005 3.5498Z" fill="#034D82"/>
<path d="M9.50049 6.5498C10.6055 6.5498 11.5005 7.4448 11.5005 8.5498C11.5005 9.6548 10.6055 10.5498 9.50049 10.5498C8.39549 10.5498 7.50049 9.6548 7.50049 8.5498C7.50049 7.4448 8.39549 6.5498 9.50049 6.5498Z" fill="#034D82"/>
<path d="M19.5005 16.5498V28.5498H19.4765C19.2245 25.7469 16.8696 23.5498 14.0005 23.5498C15.1055 23.5498 16.0005 22.6548 16.0005 21.5498C16.0005 20.4448 15.1055 19.5498 14.0005 19.5498C12.8955 19.5498 12.0005 20.4448 12.0005 21.5498C12.0005 22.6548 12.8955 23.5498 14.0005 23.5498C11.1316 23.5498 8.77649 25.7469 8.52449 28.5498H8.50049V16.5498H19.5005Z" fill="#313A52"/>
<path d="M14.0004 23.5498C16.8694 23.5498 19.2244 25.7469 19.4764 28.5498H8.52441C8.77641 25.7469 11.1314 23.5498 14.0004 23.5498Z" fill="#FFD15C"/>
<path d="M14.0005 19.5498C15.1055 19.5498 16.0005 20.4448 16.0005 21.5498C16.0005 22.6548 15.1055 23.5498 14.0005 23.5498C12.8955 23.5498 12.0005 22.6548 12.0005 21.5498C12.0005 20.4448 12.8955 19.5498 14.0005 19.5498Z" fill="#FFD15C"/>
<path d="M18.2075 4.8428C18.3885 5.0238 18.5005 5.2738 18.5005 5.5498C18.5005 5.8258 18.3885 6.0758 18.2075 6.2568C18.0264 6.4378 17.7764 6.5498 17.5005 6.5498C16.9485 6.5498 16.5005 6.1018 16.5005 5.5498C16.5005 5.2738 16.6125 5.0238 16.7936 4.8428C16.9746 4.6618 17.2246 4.5498 17.5005 4.5498C17.7764 4.5498 18.0265 4.6618 18.2075 4.8428Z" fill="#034D82"/>
<path d="M32.5005 19.5498H23.5005C22.9483 19.5498 22.5005 19.1021 22.5005 18.5498C22.5005 17.9975 22.9483 17.5498 23.5005 17.5498H32.5005C33.0527 17.5498 33.5005 17.9975 33.5005 18.5498C33.5005 19.1021 33.0527 19.5498 32.5005 19.5498Z" fill="#FAFAFA"/>
<path d="M35.5005 22.5498H23.5005C22.9483 22.5498 22.5005 22.1021 22.5005 21.5498C22.5005 20.9975 22.9483 20.5498 23.5005 20.5498H35.5005C36.0527 20.5498 36.5005 20.9975 36.5005 21.5498C36.5005 22.1021 36.0527 22.5498 35.5005 22.5498Z" fill="#FAFAFA"/>
<path d="M38.5005 25.5498H23.5005C22.9483 25.5498 22.5005 25.1021 22.5005 24.5498C22.5005 23.9975 22.9483 23.5498 23.5005 23.5498H38.5005C39.0527 23.5498 39.5005 23.9975 39.5005 24.5498C39.5005 25.1021 39.0527 25.5498 38.5005 25.5498Z" fill="#FAFAFA"/>
<path d="M38.5005 28.5498H23.5005C22.9483 28.5498 22.5005 28.102 22.5005 27.5498C22.5005 26.9976 22.9483 26.5498 23.5005 26.5498H38.5005C39.0527 26.5498 39.5005 26.9976 39.5005 27.5498C39.5005 28.102 39.0527 28.5498 38.5005 28.5498Z" fill="#FAFAFA"/>
<path d="M48.7925 16.2281C47.381 18.4944 44.8667 20.0029 41.9994 20.0029C37.9697 20.0029 34.6348 17.0224 34.0817 13.1458C34.0269 12.7721 33.9994 12.3915 33.9994 12.0029C33.9994 7.58464 37.5811 4.00293 41.9994 4.00293C46.4177 4.00293 49.9994 7.58464 49.9994 12.0029C49.9994 13.5538 49.5571 15.0018 48.7925 16.2281Z" fill="#FFD15C"/>
<path d="M40.6204 15.4061C40.3644 15.4061 40.1086 15.3085 39.9133 15.1132L37.7923 12.9922C37.4018 12.6017 37.4018 11.9685 37.7923 11.5779C38.1829 11.1874 38.8159 11.1874 39.2066 11.5779L40.6205 12.9918L44.8634 8.74893C45.254 8.35843 45.887 8.35843 46.2777 8.74893C46.6682 9.13943 46.6682 9.77263 46.2777 10.1632L41.3277 15.1132C41.1322 15.3085 40.8763 15.4061 40.6204 15.4061Z" fill="white"/>
<path d="M30.5005 47.8497H20.5005C19.9483 47.8497 19.5005 47.4019 19.5005 46.8497V42.4497C19.5005 41.8975 19.9483 41.4497 20.5005 41.4497C21.0528 41.4497 21.5005 41.8975 21.5005 42.4497V45.8497H29.5005V42.4497C29.5005 41.8975 29.9483 41.4497 30.5005 41.4497C31.0527 41.4497 31.5005 41.8975 31.5005 42.4497V46.8497C31.5005 47.4019 31.0527 47.8497 30.5005 47.8497Z" fill="#414A56"/>
<path d="M34.0005 45.4497C34.8285 45.4497 35.5005 46.1217 35.5005 46.9497C35.5005 47.3637 35.3325 47.7387 35.0605 48.0097C34.7895 48.2818 34.4145 48.4497 34.0005 48.4497H17.0005C16.1726 48.4497 15.5005 47.7777 15.5005 46.9497C15.5005 46.5357 15.6686 46.1607 15.9405 45.8897C16.2115 45.6176 16.5865 45.4497 17.0005 45.4497H20.5005H30.5005H34.0005Z" fill="#B3B3B3"/>
<path d="M47.5005 37.4497V39.1497C47.5005 40.9727 46.0235 42.4497 44.2005 42.4497H30.5005H20.5005H6.80049C4.97759 42.4497 3.50049 40.9727 3.50049 39.1497V37.4497H47.5005Z" fill="#B3B3B3"/>
<path d="M41.2075 45.7427C41.3885 45.9238 41.5005 46.1738 41.5005 46.4497C41.5005 46.7256 41.3885 46.9757 41.2075 47.1567C41.0264 47.3377 40.7764 47.4497 40.5005 47.4497C39.9485 47.4497 39.5005 47.0017 39.5005 46.4497C39.5005 46.1737 39.6125 45.9237 39.7935 45.7427C39.9746 45.5617 40.2246 45.4497 40.5005 45.4497C40.7764 45.4497 41.0265 45.5617 41.2075 45.7427Z" fill="#034D82"/>
<path d="M9.20749 45.7427C9.38849 45.9238 9.50049 46.1738 9.50049 46.4497C9.50049 46.7256 9.38849 46.9757 9.20749 47.1567C9.02639 47.3377 8.77639 47.4497 8.50049 47.4497C7.94849 47.4497 7.50049 47.0017 7.50049 46.4497C7.50049 46.1737 7.61249 45.9237 7.79359 45.7427C7.97459 45.5617 8.22459 45.4497 8.50049 45.4497C8.77639 45.4497 9.02649 45.5617 9.20749 45.7427Z" fill="#034D82"/>
</svg>
