<svg width="52" height="52" viewBox="0 0 52 52" fill="none" xmlns="http://www.w3.org/2000/svg">
<path d="M37.375 13V27.625C37.375 28.056 37.2038 28.4693 36.899 28.774C36.5943 29.0788 36.181 29.25 35.75 29.25C33.5951 29.25 31.5285 30.106 30.0048 31.6298C28.481 33.1535 27.625 35.2201 27.625 37.375C27.6182 37.921 27.6727 38.4661 27.7875 39C27.8602 39.3585 27.9579 39.7114 28.08 40.0562C28.1758 40.3036 28.2096 40.5707 28.1785 40.8341C28.1473 41.0975 28.0521 41.3493 27.9013 41.5675C27.7519 41.7828 27.5528 41.9587 27.3207 42.0804C27.0887 42.2021 26.8307 42.2658 26.5688 42.2663H8.125C7.69402 42.2663 7.2807 42.095 6.97595 41.7903C6.67121 41.4855 6.5 41.0722 6.5 40.6413V4.875C6.5 4.44402 6.67121 4.0307 6.97595 3.72595C7.2807 3.4212 7.69402 3.25 8.125 3.25H27.625C28.0513 3.2518 28.4598 3.42104 28.7625 3.72125L36.8875 11.8462C37.041 11.9967 37.1632 12.1762 37.2469 12.3743C37.3306 12.5723 37.3741 12.785 37.375 13Z" fill="url(#paint0_linear_6_317)"/>
<path d="M27.9013 41.5513C27.7519 41.7665 27.5528 41.9425 27.3207 42.0641C27.0887 42.1858 26.8307 42.2496 26.5688 42.25H8.125C7.69402 42.25 7.2807 42.0788 6.97595 41.774C6.67121 41.4693 6.5 41.056 6.5 40.625V4.875C6.5 4.44402 6.67121 4.0307 6.97595 3.72595C7.2807 3.4212 7.69402 3.25 8.125 3.25H9.75V30.5825C9.7543 32.8136 10.6425 34.9522 12.2202 36.5298C13.7978 38.1075 15.9364 38.9957 18.1675 39H27.7875C27.8602 39.3532 27.9579 39.7007 28.08 40.04C28.1758 40.2874 28.2096 40.5544 28.1785 40.8178C28.1473 41.0813 28.0521 41.3331 27.9013 41.5513Z" fill="#034D82"/>
<path d="M47.125 37.375C47.1134 40.0501 46.1594 42.6355 44.4306 44.6769C42.7019 46.7183 40.3089 48.0851 37.6723 48.5372C35.0357 48.9892 32.3241 48.4976 30.014 47.1486C27.704 45.7996 25.9433 43.6797 25.0412 41.1613C24.8586 40.6799 24.7119 40.1856 24.6025 39.6825C24.452 38.9225 24.3758 38.1497 24.375 37.375C24.375 34.3582 25.5734 31.4649 27.7067 29.3317C29.8399 27.1984 32.7332 26 35.75 26C38.7668 26 41.6601 27.1984 43.7933 29.3317C45.9266 31.4649 47.125 34.3582 47.125 37.375Z" fill="url(#paint1_linear_6_317)"/>
<path d="M37.375 47.1249C35.0247 47.1212 32.7333 46.3897 30.8157 45.0308C28.8981 43.6719 27.4485 41.7524 26.6662 39.5361C26.4836 39.0548 26.3369 38.5605 26.2275 38.0574C26.077 37.2974 26.0008 36.5246 26 35.7499C25.9929 33.1297 26.901 30.5893 28.5675 28.5674C27.2593 29.6327 26.2044 30.9756 25.4793 32.4989C24.7541 34.0222 24.3769 35.6878 24.375 37.3749C24.3758 38.1496 24.452 38.9224 24.6025 39.6824C24.7119 40.1855 24.8586 40.6798 25.0412 41.1611C25.7182 43.0562 26.8857 44.7378 28.4247 46.0343C29.9637 47.3309 31.8191 48.1959 33.8016 48.5412C35.7842 48.8865 37.8228 48.6996 39.7095 47.9998C41.5962 47.2999 43.2635 46.112 44.5413 44.5574C42.5236 46.2203 39.9896 47.1282 37.375 47.1249Z" fill="#E5646E"/>
<path d="M40.625 37.375C40.625 37.806 40.4538 38.2193 40.149 38.524C39.8443 38.8288 39.431 39 39 39H37.375V40.625C37.375 41.056 37.2038 41.4693 36.899 41.774C36.5943 42.0788 36.181 42.25 35.75 42.25C35.319 42.25 34.9057 42.0788 34.601 41.774C34.2962 41.4693 34.125 41.056 34.125 40.625V39H32.5C32.069 39 31.6557 38.8288 31.351 38.524C31.0462 38.2193 30.875 37.806 30.875 37.375C30.875 36.944 31.0462 36.5307 31.351 36.226C31.6557 35.9212 32.069 35.75 32.5 35.75H34.125V34.125C34.125 33.694 34.2962 33.2807 34.601 32.976C34.9057 32.6712 35.319 32.5 35.75 32.5C36.181 32.5 36.5943 32.6712 36.899 32.976C37.2038 33.2807 37.375 33.694 37.375 34.125V35.75H39C39.431 35.75 39.8443 35.9212 40.149 36.226C40.4538 36.5307 40.625 36.944 40.625 37.375Z" fill="white"/>
<path d="M24.375 13H14.625C14.194 13 13.7807 12.8288 13.476 12.524C13.1712 12.2193 13 11.806 13 11.375C13 10.944 13.1712 10.5307 13.476 10.226C13.7807 9.92121 14.194 9.75 14.625 9.75H24.375C24.806 9.75 25.2193 9.92121 25.524 10.226C25.8288 10.5307 26 10.944 26 11.375C26 11.806 25.8288 12.2193 25.524 12.524C25.2193 12.8288 24.806 13 24.375 13ZM26 17.875C26 17.444 25.8288 17.0307 25.524 16.726C25.2193 16.4212 24.806 16.25 24.375 16.25H14.625C14.194 16.25 13.7807 16.4212 13.476 16.726C13.1712 17.0307 13 17.444 13 17.875C13 18.306 13.1712 18.7193 13.476 19.024C13.7807 19.3288 14.194 19.5 14.625 19.5H24.375C24.806 19.5 25.2193 19.3288 25.524 19.024C25.8288 18.7193 26 18.306 26 17.875ZM26 24.375C26 23.944 25.8288 23.5307 25.524 23.226C25.2193 22.9212 24.806 22.75 24.375 22.75H14.625C14.194 22.75 13.7807 22.9212 13.476 23.226C13.1712 23.5307 13 23.944 13 24.375C13 24.806 13.1712 25.2193 13.476 25.524C13.7807 25.8288 14.194 26 14.625 26H24.375C24.806 26 25.2193 25.8288 25.524 25.524C25.8288 25.2193 26 24.806 26 24.375ZM29.25 22.75C28.9286 22.75 28.6144 22.8453 28.3472 23.0239C28.08 23.2024 27.8717 23.4562 27.7487 23.7531C27.6257 24.0501 27.5935 24.3768 27.6562 24.692C27.7189 25.0072 27.8737 25.2968 28.101 25.524C28.3282 25.7513 28.6178 25.9061 28.933 25.9688C29.2482 26.0315 29.5749 25.9993 29.8719 25.8763C30.1688 25.7533 30.4226 25.545 30.6011 25.2778C30.7797 25.0106 30.875 24.6964 30.875 24.375C30.875 23.944 30.7038 23.5307 30.399 23.226C30.0943 22.9212 29.681 22.75 29.25 22.75ZM29.25 16.25C28.9286 16.25 28.6144 16.3453 28.3472 16.5239C28.08 16.7024 27.8717 16.9562 27.7487 17.2531C27.6257 17.5501 27.5935 17.8768 27.6562 18.192C27.7189 18.5072 27.8737 18.7968 28.101 19.024C28.3282 19.2513 28.6178 19.4061 28.933 19.4688C29.2482 19.5315 29.5749 19.4993 29.8719 19.3763C30.1688 19.2533 30.4226 19.045 30.6011 18.7778C30.7797 18.5106 30.875 18.1964 30.875 17.875C30.875 17.444 30.7038 17.0307 30.399 16.726C30.0943 16.4212 29.681 16.25 29.25 16.25Z" fill="white"/>
<defs>
<linearGradient id="paint0_linear_6_317" x1="29.6237" y1="7.5075" x2="1.80375" y2="42.0388" gradientUnits="userSpaceOnUse">
<stop stop-color="#034D82"/>
<stop offset="1" stop-color="#034D82"/>
</linearGradient>
<linearGradient id="paint1_linear_6_317" x1="46.6213" y1="25.6587" x2="28.99" y2="44.6713" gradientUnits="userSpaceOnUse">
<stop stop-color="#FFD15C"/>
<stop offset="1" stop-color="#FFC269"/>
</linearGradient>
</defs>
</svg>
